Coordinates
version=1
nRows=13
nColumns=34
inDegrees=yes

Units are S.I. units (second, meters, Newtons, ...)
If the header above contains a line with 'inDegrees', this indicates whether rotational values are in degrees (yes) or radians (no).

endheader
time	pelvis_tilt	pelvis_list	pelvis_rotation	pelvis_tx	pelvis_ty	pelvis_tz	hip_flexion_r	hip_adduction_r	hip_rotation_r	knee_angle_r	ankle_angle_r	subtalar_angle_r	mtp_angle_r	hip_flexion_l	hip_adduction_l	hip_rotation_l	knee_angle_l	ankle_angle_l	subtalar_angle_l	mtp_angle_l	lumbar_extension	lumbar_bending	lumbar_rotation	arm_flex_r	arm_add_r	arm_rot_r	elbow_flex_r	pro_sup_r	arm_flex_l	arm_add_l	arm_rot_l	elbow_flex_l	pro_sup_l
      0.00000000	     -5.71800873	     -1.15888768	     -1.53426019	      0.01482145	      1.26634568	     -0.09292314	      2.80439882	      1.20612439	     -1.76696419	      5.32191820	     -0.96162721	     -7.30008257	      0.00000000	      1.11181465	     -3.57677035	     -3.39086666	      2.62671404	      5.53943766	      0.74770427	      0.00000000	     -5.91241291	      2.75284570	      0.51745622	    -27.33373466	    -22.93173645	     -1.94750336	     82.42686013	     82.76761779	    -25.78300159	    -30.73391443	     11.87924758	     82.37344858	     75.66305312
      0.01666670	     -8.10760233	     -1.23459442	     -1.67024853	      0.01746536	      1.26257982	     -0.09341682	      4.85257765	      1.48441637	     -1.43163505	      5.07456355	      1.11313543	     -4.00993591	      0.00000000	      3.41520252	     -3.33898565	     -2.30392690	      2.02281254	      4.68446683	      1.86233111	      0.00000000	     -2.45009618	      2.97013149	      0.51130399	    -28.76121284	    -24.40921605	     -0.67992780	     83.81793358	     83.65561580	    -28.49032145	    -29.59377282	      9.14415869	     84.22367551	     76.58158633
      0.03333330	     -8.47366272	     -0.71246800	     -1.93320719	      0.02211922	      1.26092060	     -0.09218699	      4.44984207	      1.15701915	     -1.39472817	      3.92104804	      1.52047273	     -3.96799116	      0.00000000	      3.46655701	     -2.75626852	     -2.77556927	      1.88962479	      5.26838598	      2.21017175	      0.00000000	     -1.62975855	      2.02606669	      0.42675063	    -29.22086465	    -23.99187233	     -1.86251200	     84.22430745	     84.15585659	    -31.03337619	    -29.60451238	      6.09664002	     86.06023760	     77.12961958
      0.05000000	     -8.63563974	     -0.33949351	     -1.78572599	      0.02352580	      1.25948063	     -0.09159949	      4.16568586	      0.84250538	     -1.48456692	      3.18295115	      1.68289974	     -3.82033898	      0.00000000	      3.03070829	     -2.24607496	     -2.62707360	      1.07645839	      4.75623945	      2.00207485	      0.00000000	     -0.95764430	      1.25357470	      0.27365911	    -29.65601191	    -23.72961067	     -2.39146392	     84.35576136	     84.28783805	    -32.21459106	    -30.12677679	      4.96585433	     87.09670825	     77.41250889
      0.06666670	     -8.72016635	     -0.22453615	     -1.72952156	      0.02322828	      1.25958757	     -0.09092460	      3.86936166	      0.79222748	     -1.45847371	      2.60939889	      1.82913266	     -3.90317847	      0.00000000	      2.80698708	     -2.05335678	     -2.24834732	      0.74989100	      4.98129532	      1.82166236	      0.00000000	     -0.61983588	      0.97937255	      0.30157982	    -29.92634315	    -23.55395682	     -2.84415119	     84.70000452	     84.41655725	    -33.17285348	    -30.36252923	      4.04538547	     88.39649607	     77.73157097
      0.08333330	     -8.84889422	     -0.17708284	     -1.66441989	      0.02207600	      1.26059680	     -0.09172069	      3.85619005	      0.77037155	     -1.47262757	      2.36460186	      1.96803792	     -3.96364363	      0.00000000	      2.82970434	     -1.95882136	     -2.27185049	      0.45810594	      5.08719610	      1.76577362	      0.00000000	     -0.57519895	      0.96823761	      0.32241089	    -29.81195113	    -23.60068297	     -2.87372714	     84.72530979	     84.42099008	    -33.10209619	    -30.43665053	      3.97869670	     88.45511583	     77.74575573
      0.10000000	     -8.97793945	     -0.09487934	     -1.71134688	      0.02208139	      1.26016960	     -0.09138916	      3.78792001	      0.69403801	     -1.42094486	      2.01754847	      2.18886358	     -4.05206035	      0.00000000	      2.80583183	     -1.84438190	     -2.09151372	      0.14457410	      5.18553255	      1.78512113	      0.00000000	     -0.36284837	      0.86249107	      0.38288854	    -29.65948398	    -23.62098417	     -2.87609684	     84.74806788	     84.42784115	    -32.99001970	    -30.49839623	      3.90201261	     88.65779905	     77.77812360
      0.11666670	     -8.97671252	     -0.09786402	     -1.70687721	      0.02233763	      1.25929885	     -0.09184643	      3.80222712	      0.70039087	     -1.41636817	      2.00700457	      2.19229621	     -4.05288266	      0.00000000	      2.79613104	     -1.83000596	     -2.08796599	      0.14542596	      5.18640360	      1.78508046	      0.00000000	     -0.36385814	      0.86103597	      0.38317590	    -29.65814424	    -23.61752929	     -2.87325534	     84.74684276	     84.42795790	    -32.98735940	    -30.49687534	      3.90243298	     88.66478284	     77.77910606
      0.13333330	     -9.14468491	     -0.03248586	     -1.64153107	      0.02375894	      1.25893153	     -0.09230815	      3.84630624	      0.62013641	     -1.27979106	      1.73629673	      2.26913070	     -4.11663458	      0.00000000	      2.88846988	     -1.73449856	     -1.89208522	      0.00000000	      5.22235950	      1.79371029	      0.00000000	     -0.38039854	      0.77912846	      0.36979022	    -29.53837060	    -23.45133889	     -2.74319671	     84.67652523	     84.42483543	    -32.76239736	    -30.23119738	      4.02143434	     88.95063943	     77.81639487
      0.15000000	     -9.18485905	     -0.04711607	     -1.64134682	      0.02503162	      1.25858938	     -0.09256671	      3.83147891	      0.61318322	     -1.27738360	      1.74763849	      2.26406749	     -4.11794220	      0.00000000	      2.86720124	     -1.73487359	     -1.88649869	      0.00781933	      5.22037486	      1.79427142	      0.00000000	     -0.37925584	      0.77397888	      0.36747801	    -29.53322720	    -23.44652797	     -2.73906946	     84.67311445	     84.42448959	    -32.75223791	    -30.22408178	      4.02490082	     88.95563036	     77.81734315
      0.16666670	     -9.24281736	     -0.12752088	     -1.52950824	      0.02463718	      1.25914085	     -0.09253900	      3.80256274	      0.68369069	     -1.19089689	      1.68523599	      2.02447365	     -4.17666556	      0.00000000	      2.89585710	     -1.81044946	     -1.58877164	      0.00000000	      5.19084915	      1.84147598	      0.00000000	     -0.22997907	      0.81275354	      0.34523132	    -29.26241619	    -23.11037151	     -2.47958660	     84.47358720	     84.40329932	    -32.21473243	    -29.66689897	      4.25099037	     89.13343156	     77.85640920
      0.18333330	     -9.28844394	     -0.13353094	     -1.53834936	      0.02533436	      1.25687642	     -0.09249275	      3.77744581	      0.68388420	     -1.19968975	      1.69881866	      2.01484245	     -4.18244485	      0.00000000	      2.87278858	     -1.81623622	     -1.58513174	      0.00321067	      5.18767236	      1.84062599	      0.00000000	     -0.22979746	      0.80585142	      0.34660020	    -29.25687845	    -23.10711470	     -2.47572002	     84.46973829	     84.40251038	    -32.20507113	    -29.65725081	      4.25488996	     89.13424104	     77.85718548
      0.20000000	     -9.54430034	     -0.25472953	     -1.43780175	      0.02451828	      1.25444165	     -0.09280669	      3.97376932	      0.83157998	     -1.04455888	      1.48390655	      0.43027457	     -5.89813656	      0.00000000	      3.13975272	     -1.94207808	     -0.98693305	      0.00000000	      4.70227982	      0.78757951	      0.00000000	      0.13631188	      0.78717650	      0.61302637	    -28.83778776	    -22.98075130	     -1.73490941	     83.65529642	     83.87243229	    -31.55946432	    -29.30019041	      4.81720567	     89.10818862	     78.19824252
